# xmcd CD database file
#
# Track frame offsets:
#	150
#	13671
#	27536
#	43098
#	60344
#	72641
#	86989
#	104958
#	122067
#	141611
#	155202
#	172370
#	187082
#	201385
#	217363
#	233590
#	248753
#	265818
#	282774
#
# Disc length: 3966 seconds
#
# Revision: 0
# Processed by: cddbd v1.5.1PL2 Copyright (c) Steve Scherf et al.
# Submitted via: CDex 1.51
#
DISCID=400f7c13
DTITLE=Truck Stop - Der wilde, wilde Westen  CD 3
DYEAR=2005
DGENRE=Country
TTITLE0=Take it easy, altes Haus
TTITLE1=Komm ma auf`n Punkt
TTITLE2=Alles bingo
TTITLE3=Damenwahl
TTITLE4=Cisco, Lucius, Erich, Uwe, Teddy und Ich
TTITLE5=Ohne Dich keine Liebe
TTITLE6=Ein Herz und eine Seele
TTITLE7=Wie schön, dass du das bist
TTITLE8=Wohin der Wind dich treibt
TTITLE9=Eine Hand voller Gründe
TTITLE10=Heimat ist überall
TTITLE11=Sag Mami goodbeye
TTITLE12=Angeln entspannt
TTITLE13=Gegen den Wind
TTITLE14=Raue Hände
TTITLE15=Das Leben ist viel zu kurz (egal, wie lang es ist)
TTITLE16=Immer noch verrückt
TTITLE17=Sonst glaub ich`s nicht
TTITLE18=Lass dir nie den Tag verderben
EXTD=YEAR: 2005
EXTT0=
EXTT1=
EXTT2=
EXTT3=
EXTT4=
EXTT5=
EXTT6=
EXTT7=
EXTT8=
EXTT9=
EXTT10=
EXTT11=
EXTT12=
EXTT13=
EXTT14=
EXTT15=
EXTT16=
EXTT17=
EXTT18=
PLAYORDER=
